inDegrees=yes
name=ik_S51_A08_T02
DataType=double
version=3
OpenSimVersion=4.3-2021-08-27-4bc7ad9
endheader
time	pelvis_tilt	pelvis_list	pelvis_rotation	pelvis_tx	pelvis_ty	pelvis_tz	hip_flexion_r	hip_adduction_r	hip_rotation_r	knee_angle_r	knee_angle_r_beta	ankle_angle_r	subtalar_angle_r	mtp_angle_r	hip_flexion_l	hip_adduction_l	hip_rotation_l	knee_angle_l	knee_angle_l_beta	ankle_angle_l	subtalar_angle_l	mtp_angle_l	lumbar_extension	lumbar_bending	lumbar_rotation	arm_flex_r	arm_add_r	arm_rot_r	elbow_flex_r	pro_sup_r	wrist_flex_r	wrist_dev_r	arm_flex_l	arm_add_l	arm_rot_l	elbow_flex_l	pro_sup_l	wrist_flex_l	wrist_dev_l
6.539999999999949	-4.520469111062046	-0.925805117660396	23.48900567911862	0	0.9399999999999999	0	38.11504162498462	-11.15386025642088	-10.58945588598323	42.57589312464046	0.7430895170021925	0	0	0	38.11504162498462	-11.15386025642088	-10.58945588598323	42.57589312464046	0.7430895170021925	0	0	0	-4.698993487954708	0.2601896693201798	-1.206587998663639	11.03704257254612	-15.78607428584326	-14.26907639329252	73.79029974782451	122.2640764587746	0	0	19.148098683978	-12.93822166387353	-27.79817948641287	58.11115469096218	116.5697627172132	0	0
6.559999999999948	-4.520363741694313	-0.9246915572159504	23.6969607776773	0	0.9399999999999999	0	38.12031407170544	-11.15080166513013	-10.58845369502051	42.58245298285769	0.7432040081265472	0	0	0	38.12031407170544	-11.15080166513013	-10.58845369502051	42.58245298285769	0.7432040081265472	0	0	0	-4.701057519984329	0.2746048340092556	-1.370543126094834	11.03297588914151	-15.72565246600908	-14.33774655408081	73.71688241309008	122.3581316977329	0	0	19.50253880446489	-14.00924197087631	-28.20516620171246	63.01308875005564	117.1092083481641	0	0
6.579999999999948	-4.505822288025597	-0.9296708408032351	23.91613469633415	0	0.9399999999999999	0	38.12588015281424	-11.14757337376662	-10.58739548037897	42.58936852809618	0.7433247071605295	0	0	0	38.12588015281424	-11.14757337376662	-10.58739548037897	42.58936852809618	0.7433247071605295	0	0	0	-4.692321626698291	0.281776095643349	-1.564765846668224	11.01565231508276	-15.67534273448322	-14.33788411399827	73.68513665221789	122.4034540928235	0	0	20.10156724747306	-15.23052189757623	-28.77248363370288	67.37435200878751	116.4363946406492	0	0
6.599999999999947	-4.48897420660516	-0.9429782598745605	24.14023518815853	0	0.9399999999999999	0	38.13132038291477	-11.14442365761526	-10.58636206058173	42.59612809737922	0.7434426839005353	0	0	0	38.13132038291477	-11.14442365761526	-10.58636206058173	42.59612809737922	0.7434426839005353	0	0	0	-4.683710613796567	0.2789766123096086	-1.742831801579424	10.98258869065457	-15.62764222981144	-14.36563221729436	73.67491485216257	122.4486239281068	0	0	20.9447519583871	-16.43446901872953	-29.32020972065184	71.41291842422878	114.5136806732839	0	0
6.619999999999947	-4.442060538226039	-0.9538559738493061	24.17668576757934	0	0.9399999999999999	0	38.13645540495295	-11.14149507879326	-10.58539595990713	42.60258761808687	0.7435554238049843	0	0	0	38.13645540495295	-11.14149507879326	-10.58539595990713	42.60258761808687	0.7435554238049843	0	0	0	-4.645957341704475	0.2535103407009752	-1.71665651250638	10.90635185890706	-15.5543185776256	-14.40729884412624	73.62954324404203	122.5162720173041	0	0	20.67572401833388	-16.99857078792752	-29.19704095033476	76.24243072622404	111.5801401456766	0	0
6.639999999999946	-4.410563337187491	-0.9554143290568651	24.34365098240688	0	0.9399999999999999	0	38.14171184064013	-11.13846399784487	-10.58439948121074	42.60912346743876	0.7436694958955893	0	0	0	38.14171184064013	-11.13846399784487	-10.58439948121074	42.60912346743876	0.7436694958955893	0	0	0	-4.624125581649463	0.2597756057554018	-1.876637497642945	10.86091205563753	-15.50808022363068	-14.37958252544813	73.59459671110108	122.5777380306629	0	0	21.70440813410749	-18.11437962414151	-29.70791816224678	79.40718143539316	108.3610938598127	0	0
6.659999999999946	-4.365036707234096	-0.958149093135079	24.48053193700921	0	0.9399999999999999	0	38.14633922224223	-11.13579984505897	-10.58352290787665	42.61487745065759	0.7437699218478624	0	0	0	38.14633922224223	-11.13579984505897	-10.58352290787665	42.61487745065759	0.7437699218478624	0	0	0	-4.585704320112565	0.249687648645673	-1.988529449364132	10.77708640392655	-15.49821745253466	-14.3620451264632	73.60063402276278	122.5802599710587	0	0	24.69200324123876	-19.34643050576188	-29.92530560386883	80.1085340477176	105.7163641747837	0	0
6.679999999999946	-4.319606264499001	-0.9529934250355324	24.51659921251809	0	0.9399999999999999	0	38.15139323968448	-11.13289472325747	-10.58256623364157	42.62116195679579	0.7438796071718357	0	0	0	38.15139323968448	-11.13289472325747	-10.58256623364157	42.62116195679579	0.7438796071718357	0	0	0	-4.542273920980901	0.2380450574705683	-2.02910660807493	10.70434935387802	-15.5159374724872	-14.28059905124199	73.64589566020543	122.5467363829276	0	0	26.52364082838316	-20.00761106495578	-29.96603515018279	81.63869132330926	103.3430450677011	0	0
6.699999999999945	-4.256653047603371	-0.9363300770488223	24.54365552241862	0	0.9399999999999999	0	38.15659326573959	-11.12990956367016	-10.58158247221738	42.62762649533666	0.7439924346539959	0	0	0	38.15659326573959	-11.12990956367016	-10.58158247221738	42.62762649533666	0.7439924346539959	0	0	0	-4.478328698232628	0.2296629882266729	-2.066043054855377	10.603305114189	-15.58875345754024	-14.1972320200789	73.65868645481557	122.4804743273147	0	0	28.42287515541742	-20.55051732105863	-29.99984821869739	82.536884910249	101.6663167581661	0	0
6.719999999999945	-4.105645153764264	-0.8888900951711881	24.5982013638553	0	0.9399999999999999	0	38.1592794702367	-11.12837440760157	-10.58107566606405	42.63097589483684	0.7440508927032389	0	0	0	38.1592794702367	-11.12837440760157	-10.58107566606405	42.63097589483684	0.7440508927032389	0	0	0	-4.321503052241214	0.2123731536974884	-2.097717185865633	10.33568746869543	-15.66516141112191	-14.15258495534922	73.66242353139017	122.4148432825672	0	0	30.26348135910041	-21.0214121913003	-30.00931017254118	82.81149930885259	100.8195416748078	0	0
6.739999999999944	-4.110305766633229	-0.8837155057525297	24.65347576625358	0	0.9399999999999999	0	38.16144235131762	-11.12714285565493	-10.58066852378665	42.63368002920537	0.7440980887513858	0	0	0	38.16144235131762	-11.12714285565493	-10.58066852378665	42.63368002920537	0.7440980887513858	0	0	0	-4.324193643160569	0.2243646345725426	-2.165498813716646	10.36505824384801	-15.77073746517801	-14.0934901529686	73.70957611792404	122.3870833170034	0	0	32.39424624933127	-21.41854014609395	-30.17964320434551	82.71209844104975	100.404946413157	0	0
6.759999999999944	-4.027895713445309	-0.8617497174031197	24.71381930754933	0	0.9399999999999999	0	38.16526980982778	-11.12495537328851	-10.57994614170586	42.63844485545156	0.7441812506576674	0	0	0	38.16526980982778	-11.12495537328851	-10.57994614170586	42.63844485545156	0.7441812506576674	0	0	0	-4.240524917863713	0.2141007990195578	-2.215713778510173	10.24319104856498	-15.84868346689959	-14.09989898906989	73.7354838850998	122.2509378808623	0	0	34.39051107569443	-21.7016457827829	-30.29967112804118	81.89250340909736	100.3410098060147	0	0
6.779999999999943	-3.918291107843564	-0.7957789183680873	24.71038359374251	0	0.9399999999999999	0	38.16913755618704	-11.12274824825515	-10.5792167214983	42.64326119991704	0.7442653117265002	0	0	0	38.16913755618704	-11.12274824825515	-10.5792167214983	42.64326119991704	0.7442653117265002	0	0	0	-4.114069485369316	0.2336612556551517	-2.279240239934727	10.05360962692881	-15.97592288882868	-13.99240320305818	73.75803442649745	122.2014223477646	0	0	36.38241611600387	-21.78057902542852	-30.44357922974268	80.35794586294733	100.8325883385483	0	0
6.799999999999943	-3.879372437538245	-0.76396583884928	24.69757687346208	0	0.9399999999999999	0	38.17348284521137	-11.12027311767222	-10.57839801820835	42.64867476080636	0.744359796188276	0	0	0	38.17348284521137	-11.12027311767222	-10.57839801820835	42.64867476080636	0.744359796188276	0	0	0	-4.065691309028518	0.2485859637243155	-2.321609170782783	10.03334294414736	-16.06203434230169	-13.90337185754775	73.76956617948649	122.1179716552771	0	0	38.45240147043943	-21.63080222260079	-30.50646911098514	78.26899527908441	101.9999963489419	0	0
6.819999999999943	-3.852362162992069	-0.7446267929497483	24.60673937182962	0	0.9399999999999999	0	38.17796330633705	-11.11772768128319	-10.57755507128954	42.65426271288006	0.7444573243504058	0	0	0	38.17796330633705	-11.11772768128319	-10.57755507128954	42.65426271288006	0.7444573243504058	0	0	0	-4.032756208363451	0.2419312249566032	-2.247078141935148	10.03756671412572	-16.14306772323501	-13.8807852580849	73.73689070452947	122.0634161349904	0	0	42.66192814532182	-21.05889908477508	-30.09753961694501	73.47471173095606	104.7975180871386	0	0
6.839999999999942	-3.808056579259851	-0.7069810641324755	24.61574015656402	0	0.9399999999999999	0	38.1828349542598	-11.11501468357616	-10.57665028792567	42.66044302896321	0.7445651912148706	0	0	0	38.1828349542598	-11.11501468357616	-10.57665028792567	42.66044302896321	0.7445651912148706	0	0	0	-3.977547765809963	0.2628827334002803	-2.311459513939131	9.982076414702295	-16.18516154104663	-13.88121101980395	73.68857452311802	122.1281179857134	0	0	42.51611837802051	-21.03839504386218	-30.26951314614244	73.03313221123238	105.7089589407248	0	0
6.859999999999942	-3.751277469204541	-0.6740961893057342	24.62851141544419	0	0.9399999999999999	0	38.18531635963579	-11.11367559308169	-10.57619872695999	42.66367556425603	0.7446216095989173	0	0	0	38.18531635963579	-11.11367559308169	-10.57619872695999	42.66367556425603	0.7446216095989173	0	0	0	-3.913200633787845	0.2755648380882412	-2.398135656809259	9.867203125768569	-16.19147896450902	-13.80459204801031	73.68348631124975	122.1666124711313	0	0	42.34938550044228	-21.03758157286805	-30.40474274023567	72.47502873342492	106.4866284511843	0	0
6.879999999999941	-3.717005812382919	-0.6547331859574895	24.43807696241385	0	0.9399999999999999	0	38.19035144970516	-11.11082433110783	-10.57525278918521	42.66995238169003	0.7447311607296873	0	0	0	38.19035144970516	-11.11082433110783	-10.57525278918521	42.66995238169003	0.7447311607296873	0	0	0	-3.867578587438729	0.2522450008067795	-2.233995617880868	9.839995201252119	-16.20245880412117	-13.80871804165437	73.62145753719729	122.1862369417918	0	0	46.21012827816958	-20.48207423447757	-29.72688240174255	68.17304863355923	108.5505532592902	0	0
